<svg xmlns="http://www.w3.org/2000/svg" width="1200" height="500" viewBox="0 0 1200 500" role="img" aria-labelledby="title desc">
  <title id="title">Activity and public work signals</title>
  <desc id="desc">A compact summary of Ali Erkan Ocakli's public GitHub activity and featured projects.</desc>
  <defs>
    <linearGradient id="bg" x1="0" y1="0" x2="1" y2="1">
      <stop offset="0%" stop-color="#020617"/>
      <stop offset="52%" stop-color="#0f172a"/>
      <stop offset="100%" stop-color="#111827"/>
    </linearGradient>
    <linearGradient id="accent" x1="0" y1="0" x2="1" y2="0">
      <stop offset="0%" stop-color="#38bdf8"/>
      <stop offset="48%" stop-color="#818cf8"/>
      <stop offset="100%" stop-color="#34d399"/>
    </linearGradient>
    <style>
      text { font-family: Arial, Helvetica, sans-serif; }
      .title { fill: #f8fafc; font-size: 42px; font-weight: 800; }
      .subtitle { fill: #cbd5e1; font-size: 18px; font-weight: 500; }
      .label { fill: #94a3b8; font-size: 13px; font-weight: 700; letter-spacing: 1.2px; }
      .value { fill: #f8fafc; font-size: 30px; font-weight: 800; }
      .hint { fill: #94a3b8; font-size: 13px; font-weight: 600; }
      .repo { fill: #e0f2fe; font-size: 14px; font-weight: 800; }
      .muted { fill: #cbd5e1; font-size: 13px; font-weight: 600; }
      .date { fill: #94a3b8; font-size: 13px; font-weight: 600; }
    </style>
  </defs>
  <rect width="1200" height="500" rx="30" fill="url(#bg)"/>
  <rect x="44" y="44" width="1112" height="432" rx="24" fill="#020617" fill-opacity="0.58" stroke="#334155"/>
  <rect x="44" y="44" width="1112" height="5" rx="2.5" fill="url(#accent)"/>

  <text x="82" y="104" class="title">Activity &amp; Signals</text>
  <text x="82" y="136" class="subtitle">Public work snapshot for AI tooling, data systems, and developer products.</text>

  <g transform="translate(82 150)">
    <rect width="314" height="92" rx="18" fill="#0f172a" stroke="#1e293b"/>
    <text x="22" y="30" class="label">FEATURED SYSTEMS</text>
    <text x="22" y="63" class="value">6</text>
    <text x="72" y="62" class="hint">MCP, CLI, extension, course</text>
  </g>
  <g transform="translate(442 150)">
    <rect width="314" height="92" rx="18" fill="#0f172a" stroke="#1e293b"/>
    <text x="22" y="30" class="label">CURATED REPOS</text>
    <text x="22" y="63" class="value">6</text>
    <text x="72" y="62" class="hint">AI, data, developer tools</text>
  </g>
  <g transform="translate(802 150)">
    <rect width="314" height="92" rx="18" fill="#0f172a" stroke="#1e293b"/>
    <text x="22" y="30" class="label">MAINTENANCE LAYERS</text>
    <text x="22" y="63" class="value">3</text>
    <text x="72" y="62" class="hint">CI + security + deps</text>
  </g>

  <text x="82" y="286" class="label">FEATURED PUBLIC WORK</text>
  <text x="628" y="286" class="label">STACK</text>
  <text x="878" y="286" class="label">LAST PUSH</text>
  
    <g transform="translate(86 310)">
      <circle cx="0" cy="8" r="4.5" fill="#38bdf8"/>
      <text x="18" y="13" class="repo">gromacs-mcp</text>
      <text x="310" y="13" class="muted">Scientific MCP</text>
      <text x="542" y="13" class="muted">Python / GROMACS</text>
      <text x="792" y="13" class="date">Jul 08, 2026</text>
    </g>
    <g transform="translate(86 334)">
      <circle cx="0" cy="8" r="4.5" fill="#818cf8"/>
      <text x="18" y="13" class="repo">vmd-mcp</text>
      <text x="310" y="13" class="muted">Molecular tooling</text>
      <text x="542" y="13" class="muted">Python / VMD</text>
      <text x="792" y="13" class="date">Jul 08, 2026</text>
    </g>
    <g transform="translate(86 358)">
      <circle cx="0" cy="8" r="4.5" fill="#34d399"/>
      <text x="18" y="13" class="repo">boost</text>
      <text x="310" y="13" class="muted">macOS CLI</text>
      <text x="542" y="13" class="muted">Bash / gum</text>
      <text x="792" y="13" class="date">Jul 08, 2026</text>
    </g>
    <g transform="translate(86 382)">
      <circle cx="0" cy="8" r="4.5" fill="#f59e0b"/>
      <text x="18" y="13" class="repo">claude-tracker</text>
      <text x="310" y="13" class="muted">Local-first extension</text>
      <text x="542" y="13" class="muted">JavaScript / MV3</text>
      <text x="792" y="13" class="date">Jul 08, 2026</text>
    </g>
    <g transform="translate(86 406)">
      <circle cx="0" cy="8" r="4.5" fill="#22c55e"/>
      <text x="18" y="13" class="repo">Data-Mining-Lesson-Unime</text>
      <text x="310" y="13" class="muted">University data</text>
      <text x="542" y="13" class="muted">Python / Jupyter</text>
      <text x="792" y="13" class="date">Jul 08, 2026</text>
    </g>
    <g transform="translate(86 430)">
      <circle cx="0" cy="8" r="4.5" fill="#60a5fa"/>
      <text x="18" y="13" class="repo">edufrench</text>
      <text x="310" y="13" class="muted">Education product</text>
      <text x="542" y="13" class="muted">TypeScript / Next.js</text>
      <text x="792" y="13" class="date">Jul 08, 2026</text>
    </g>

  <text x="82" y="466" class="date">Generated Jul 09, 2026 from public GitHub repository data.</text>
</svg>
